<svg data-v-423bf9ae="" xmlns="http://www.w3.org/2000/svg" viewBox="0 0 204.63356001349797 163" class="iconAbove"><!----><!----><!----><g data-v-423bf9ae="" id="0fd41057-c71a-4c1d-a29e-0605dde2c5a8" fill="black" transform="matrix(5.767575046608915,0,0,5.767575046608915,-6.4596848305859,101.25727439084257)"><path d="M7.04 9.70L7.04 9.70L2.06 9.70L2.06 0.81C2.06 0.56 1.85 0.35 1.60 0.35C1.33 0.35 1.12 0.56 1.12 0.81L1.12 10.18C1.12 10.43 1.33 10.64 1.60 10.64L7.04 10.64C7.31 10.64 7.50 10.43 7.50 10.18C7.50 9.91 7.31 9.70 7.04 9.70ZM3.00 0.81L3.00 0.81L3.00 8.30C3.00 8.55 3.21 8.76 3.46 8.76L7.04 8.76C7.31 8.76 7.50 8.55 7.50 8.30C7.50 8.04 7.31 7.83 7.04 7.83L3.93 7.83L3.93 0.81C3.93 0.56 3.72 0.35 3.46 0.35C3.21 0.35 3.00 0.56 3.00 0.81ZM12.04 10.18L12.04 10.18L12.04 0.81C12.04 0.56 11.83 0.35 11.58 0.35C11.31 0.35 11.10 0.56 11.10 0.81L11.10 10.18C11.10 10.43 11.31 10.64 11.58 10.64C11.83 10.64 12.04 10.43 12.04 10.18ZM10.16 10.18L10.16 10.18L10.16 0.81C10.16 0.56 9.95 0.35 9.70 0.35C9.44 0.35 9.23 0.56 9.23 0.81L9.23 10.18C9.23 10.43 9.44 10.64 9.70 10.64C9.95 10.64 10.16 10.43 10.16 10.18ZM19.54 0.71L19.54 0.71C18.56 0.38 17.88 0.27 17.04 0.31C14.15 0.45 12.92 3.99 14.95 5.77C16.25 6.90 17.64 6.79 17.70 7.45C17.78 8.15 15.89 8.01 14.81 7.22C14.32 6.87 13.78 7.63 14.27 7.98C15.19 8.65 16.32 8.88 17.23 8.82C17.99 8.76 18.68 8.19 18.63 7.41C18.54 5.92 16.80 6.16 15.58 5.07C14.57 4.20 14.77 2.73 15.53 1.93C16.45 0.91 17.96 1.15 19.22 1.60C19.81 1.81 20.12 0.91 19.54 0.71ZM14.08 9.97L14.08 9.97C14.63 10.26 15.18 10.44 15.65 10.54C18.27 11.17 20.54 9.97 20.54 7.41C20.54 4.80 17.47 4.24 16.95 3.85C16.49 3.49 16.86 2.62 18.97 3.47C19.54 3.71 19.88 2.84 19.33 2.62C15.85 1.20 15.26 3.68 16.38 4.56C17.09 5.14 19.61 5.49 19.61 7.41C19.61 10.00 16.69 10.29 14.53 9.14C13.99 8.86 13.55 9.69 14.08 9.97ZM17.15 7.90L17.15 7.90L17.15 7.90L17.15 7.90ZM28.39 2.23L28.39 2.23L26.04 2.23C25.79 2.23 25.58 2.44 25.58 2.70L25.58 10.16C25.58 10.43 25.79 10.64 26.04 10.64C26.31 10.64 26.52 10.43 26.52 10.16L26.52 3.15L28.39 3.15C28.64 3.15 28.84 2.95 28.84 2.70C28.84 2.44 28.64 2.23 28.39 2.23ZM21.85 1.29L21.85 1.29L28.39 1.29C28.64 1.29 28.84 1.08 28.84 0.83C28.84 0.56 28.64 0.36 28.39 0.36L21.85 0.36C21.59 0.36 21.38 0.56 21.38 0.83C21.38 1.08 21.59 1.29 21.85 1.29ZM21.85 3.15L21.85 3.15L23.70 3.15L23.70 10.16C23.70 10.43 23.93 10.64 24.18 10.64C24.44 10.64 24.65 10.43 24.65 10.16L24.65 2.70C24.65 2.44 24.44 2.23 24.18 2.23L21.85 2.23C21.59 2.23 21.38 2.44 21.38 2.70C21.38 2.95 21.59 3.15 21.85 3.15ZM35.60 0.71L35.60 0.71C34.62 0.38 33.94 0.27 33.10 0.31C30.21 0.45 28.98 3.99 31.01 5.77C32.31 6.90 33.70 6.79 33.75 7.45C33.84 8.15 31.95 8.01 30.87 7.22C30.38 6.87 29.83 7.63 30.32 7.98C31.25 8.65 32.38 8.88 33.29 8.82C34.05 8.76 34.73 8.19 34.69 7.41C34.59 5.92 32.86 6.16 31.64 5.07C30.63 4.20 30.83 2.73 31.58 1.93C32.51 0.91 34.02 1.15 35.28 1.60C35.87 1.81 36.18 0.91 35.60 0.71ZM30.14 9.97L30.14 9.97C30.69 10.26 31.23 10.44 31.71 10.54C34.33 11.17 36.60 9.97 36.60 7.41C36.60 4.80 33.53 4.24 33.01 3.85C32.55 3.49 32.91 2.62 35.03 3.47C35.60 3.71 35.94 2.84 35.39 2.62C31.91 1.20 31.32 3.68 32.44 4.56C33.15 5.14 35.67 5.49 35.67 7.41C35.67 10.00 32.75 10.29 30.59 9.14C30.04 8.86 29.61 9.69 30.14 9.97ZM33.21 7.90L33.21 7.90L33.21 7.90L33.21 7.90Z"></path></g><!----><g data-v-423bf9ae="" id="642390cf-fdd7-4a71-a7ae-e23742b367f5" transform="matrix(1.125,0,0,1.125,46.1875,-11.25)" stroke="none" fill="black"><path d="M85 15.614c0-3.1-2.513-5.614-5.613-5.614H21.613A5.614 5.614 0 0 0 16 15.614v68.771A5.614 5.614 0 0 0 21.613 90h57.773A5.614 5.614 0 0 0 85 84.386V15.614zM74 79H27V21h47v58z"></path><path d="M36.523 55h28.073c3.101 0 5.614-2.4 5.614-5.5S67.697 44 64.597 44H36.523c-3.101 0-5.614 2.4-5.614 5.5s2.514 5.5 5.614 5.5zM36.523 72h28.073c3.101 0 5.614-2.4 5.614-5.5S67.697 61 64.597 61H36.523c-3.101 0-5.614 2.4-5.614 5.5s2.514 5.5 5.614 5.5zM36.523 38h28.073c3.101 0 5.614-2.399 5.614-5.5S67.697 27 64.597 27H36.523c-3.101 0-5.614 2.399-5.614 5.5s2.514 5.5 5.614 5.5z"></path></g><!----></svg>